<mxfile host="app.diagrams.net" modified="2024-08-07T16:03:47.318Z" agent="Mozilla/5.0 (Macintosh; Intel Mac OS X 10_15_7) AppleWebKit/537.36 (KHTML, like Gecko) Chrome/126.0.0.0 Safari/537.36" version="24.6.3" etag="gET2cO8TaN44XRYm1hZ7" type="github">
  <diagram name="Page-1" id="kNnwMkB76xRR5A71XIW4">
    <mxGraphModel>
      <root>
        <mxCell id="0" />
        <mxCell id="1" parent="0" />
      </root>
    </mxGraphModel>
  </diagram>
</mxfile>
